<svg xmlns="http://www.w3.org/2000/svg" xmlns:xlink="http://www.w3.org/1999/xlink" xmlns:lucid="lucid" width="145.65" height="218.15"><g transform="translate(1689.3695550984073 437.99904749271883)" lucid:page-tab-id="0_0"><path d="M-1688.37-431a6 6 0 0 1 6-6h131.65a6 6 0 0 1 6 6v204.15a6 6 0 0 1-6 6h-131.65a6 6 0 0 1-6-6z" stroke="#3a414a" stroke-width="2" fill="#fcfcca"/><use xlink:href="#a" transform="matrix(1,0,0,1,-1683.3695550791613,-431.99904746287353) translate(0 21.52777777777778)"/><path d="M-1604.72-394.6a6 6 0 0 1 6-6h29.86a6 6 0 0 1 6 6v24.73a6 6 0 0 1-6 6h-29.86a6 6 0 0 1-6-6zM-1604.72-357.87a6 6 0 0 1 6-6h29.86a6 6 0 0 1 6 6v24.74a6 6 0 0 1-6 6h-29.86a6 6 0 0 1-6-6zM-1604.72-321.03a6 6 0 0 1 6-6h29.86a6 6 0 0 1 6 6v24.74a6 6 0 0 1-6 6h-29.86a6 6 0 0 1-6-6z" stroke="#3a414a" stroke-width="2" fill="#fff"/><path d="M-1604.72-262.6a6 6 0 0 1 6-6h29.86a6 6 0 0 1 6 6v24.74a6 6 0 0 1-6 6h-29.86a6 6 0 0 1-6-6z" stroke="#3a414a" stroke-width="2" fill="#6db1ff"/><path d="M-1606.22-250.23h-52.5a6 6 0 0 1-6-6v-120a6 6 0 0 1 6-6h36.6" stroke="#3a414a" fill="none"/><path d="M-1605.72-249.76h-.52v-.95h.52z" stroke="#3a414a" stroke-width=".05" fill="#3a414a"/><path d="M-1607.34-382.24l-14.27 4.64v-9.27z" stroke="#3a414a" fill="#3a414a"/><path d="M-1606.22-250.23h-33.5a6 6 0 0 1-6-6v-46.43a6 6 0 0 1 6-6h17.6" stroke="#3a414a" fill="none"/><path d="M-1605.72-249.76h-.52v-.95h.52z" stroke="#3a414a" stroke-width=".05" fill="#3a414a"/><path d="M-1607.34-308.66l-14.27 4.63v-9.27z" stroke="#3a414a" fill="#3a414a"/><defs><path d="M49 0l509-1490h400L1480 0h-339l-115-346H497L386 0H49zm524-585h374c-75-213-124-402-192-666-66 268-110 453-182 666" id="b"/><path d="M128 0v-1118h290v195h12c54-169 184-238 367-200v268c-27-8-86-15-130-15-138 0-239 95-239 234V0H128" id="c"/><path d="M683-1118v229H474v562c0 71 29 104 102 104 23 0 73-7 95-13l43 225C647 9 580 16 520 16 296 16 174-96 174-301v-588H20v-229h154v-266h300v266h209" id="d"/><path d="M128 0v-1118h300V0H128zm150-1264c-91 0-165-68-165-154 0-85 74-154 165-154 90 0 165 69 165 154 0 86-75 154-165 154" id="e"/><path d="M628 22C291 22 81-210 81-554c0-346 210-578 547-578 265 0 455 142 497 372l-279 52c-25-116-99-188-215-188-160 0-244 139-244 341 0 200 84 341 244 341 116 0 193-74 217-195l279 51C1085-123 896 22 628 22" id="f"/><path d="M428-1490V0H128v-1490h300" id="g"/><path d="M633 22C291 22 81-200 81-553c0-345 210-579 537-579 292 0 525 185 525 567v84H378c7 183 109 277 260 277 105 0 184-46 216-132l272 51C1071-99 893 22 633 22zM380-669h474c-15-146-94-237-233-237-143 0-229 99-241 237" id="h"/><g id="a"><use transform="matrix(0.010850694444444444,0,0,0.010850694444444444,0,0)" xlink:href="#b"/><use transform="matrix(0.010850694444444444,0,0,0.010850694444444444,16.590711805555554,0)" xlink:href="#c"/><use transform="matrix(0.010850694444444444,0,0,0.010850694444444444,26.07421875,0)" xlink:href="#d"/><use transform="matrix(0.010850694444444444,0,0,0.010850694444444444,34.212239583333336,0)" xlink:href="#e"/><use transform="matrix(0.010850694444444444,0,0,0.010850694444444444,40.234375,0)" xlink:href="#f"/><use transform="matrix(0.010850694444444444,0,0,0.010850694444444444,53.30946180555556,0)" xlink:href="#g"/><use transform="matrix(0.010850694444444444,0,0,0.010850694444444444,59.33159722222222,0)" xlink:href="#h"/></g></defs></g></svg>